<svg width="80" height="80" viewBox="0 0 80 80" fill="none" xmlns="http://www.w3.org/2000/svg">
  <defs>
    <linearGradient id="hookStroke" x1="15" y1="18" x2="42" y2="68" gradientUnits="userSpaceOnUse">
      <stop offset="0" stop-color="#0F172A"/>
      <stop offset="1" stop-color="#475569"/>
    </linearGradient>
    <linearGradient id="waveStroke" x1="18" y1="8" x2="58" y2="42" gradientUnits="userSpaceOnUse">
      <stop offset="0" stop-color="#6366F1"/>
      <stop offset="1" stop-color="#8B5CF6"/>
    </linearGradient>
    <filter id="dotGlow" x="22" y="10" width="32" height="32" filterUnits="userSpaceOnUse">
      <feGaussianBlur stdDeviation="4" result="blur"/>
      <feMerge>
        <feMergeNode in="blur"/>
        <feMergeNode in="SourceGraphic"/>
      </feMerge>
    </filter>
  </defs>

  <g transform="rotate(-22 38 26)">
    <path d="M25 26C28.5 18 36.5 13 45 13C53.5 13 61.5 18 65 26" stroke="url(#waveStroke)" stroke-width="5" stroke-linecap="round"/>
    <path d="M30.5 26C33 21 38.5 17.5 45 17.5C51.5 17.5 57 21 59.5 26" stroke="url(#waveStroke)" stroke-width="5" stroke-linecap="round"/>
    <path d="M36 26C37.8 23.2 41.1 21.5 45 21.5C48.9 21.5 52.2 23.2 54 26" stroke="url(#waveStroke)" stroke-width="5" stroke-linecap="round"/>
  </g>

  <path d="M38 26V55C38 64.9411 29.9411 73 20 73C10.0589 73 2 64.9411 2 55V50H13V55C13 58.866 16.134 62 20 62C23.866 62 27 58.866 27 55V26" stroke="url(#hookStroke)" stroke-width="8" stroke-linecap="round" stroke-linejoin="round"/>

  <g filter="url(#dotGlow)">
    <circle cx="38" cy="26" r="6.5" fill="#4ADE80"/>
  </g>
</svg>
